# File created by Blade
# Date/Time:  Tue Sep 30 19:28:31 2014
#---------------------------------------------------------
:version 1.10
:name HOM
:units
  mass 1.0
  length 1.000000
  angle deg
:documentation
     Acclaim Skeleton File
:root
   axis xyz
   order TX TY TZ RX RY RZ
   position 0.000000 0.000000 0.000000
   orientation 0 0 0
:bonedata
   begin
      id 1
      name RightUpLeg_dum
      direction -1.000000 0.000000 0.000000
      length 3.766986
      axis 0.0 0.0 0.0 xyz
   end
   begin
      id 2
      name LeftUpLeg_dum
      direction 1.000000 0.000000 0.000000
      length 3.766986
      axis 0.0 0.0 0.0 xyz
   end
   begin
      id 3
      name Spine_dum
      direction 0.000000 1.000000 0.000000
      length 7.779697
      axis 0.0 0.0 0.0 xyz
   end
   begin
      id 4
      name RightUpLeg
      direction 0.000000 -1.000000 0.000000
      length 18.017682
      axis 0.0 0.0 0.0 xyz
      dof rx ry rz
   end
   begin
      id 5
      name RightLeg
      direction 0.000000 -1.000000 0.000000
      length 16.881075
      axis 0.0 0.0 0.0 xyz
      dof rx ry rz
   end
   begin
      id 6
      name RightFoot
      direction 0.000000 -0.258819 0.965926
      length 5.770812
      axis 15.0 0.0 0.0 xyz
      dof rx ry rz
   end
   begin
      id 7
      name RightToeBase
      direction 0.000000 0.000000 1.000000
      length 2.952750
      axis 0.0 0.0 0.0 xyz
      dof rx ry rz
   end
   begin
      id 8
      name LeftUpLeg
      direction 0.000000 -1.000000 0.000000
      length 18.017682
      axis 0.0 0.0 0.0 xyz
      dof rx ry rz
   end
   begin
      id 9
      name LeftLeg
      direction 0.000000 -1.000000 0.000000
      length 16.881075
      axis 0.0 0.0 0.0 xyz
      dof rx ry rz
   end
   begin
      id 10
      name LeftFoot
      direction 0.000000 -0.258819 0.965926
      length 5.770812
      axis 15.0 0.0 0.0 xyz
      dof rx ry rz
   end
   begin
      id 11
      name LeftToeBase
      direction 0.000000 0.000000 1.000000
      length 2.952750
      axis 0.0 0.0 0.0 xyz
      dof rx ry rz
   end
   begin
      id 12
      name Spine
      direction 0.000000 1.000000 0.000000
      length 0.000000
      axis 0.0 0.0 0.0 xyz
      dof rx ry rz
   end
   begin
      id 13
      name Spine_dum1
      direction 0.000000 1.000000 0.000000
      length 10.941760
      axis 0.0 0.0 0.0 xyz
   end
   begin
      id 14
      name Spine_dum2
      direction 0.000000 1.000000 0.000000
      length 10.941760
      axis 0.0 0.0 0.0 xyz
   end
   begin
      id 15
      name Spine_dum3
      direction 0.000000 1.000000 0.000000
      length 16.646042
      axis 0.0 0.0 0.0 xyz
   end
   begin
      id 16
      name RightShoulder
      direction -1.000000 0.000000 0.000000
      length 7.708937
      axis 0.0 0.0 90.0 xyz
      dof rx ry rz
   end
   begin
      id 17
      name RightArm
      direction -1.000000 0.000000 0.000000
      length 11.521345
      axis 0.0 0.0 90.0 xyz
      dof rx ry rz
   end
   begin
      id 18
      name RightForeArm
      direction -1.000000 0.000000 0.000000
      length 10.175898
      axis 0.0 0.0 90.0 xyz
      dof ry rz rx
   end
   begin
      id 19
      name RightHand
      direction -1.000000 0.000000 0.000000
      length 0.000000
      axis 0.0 0.0 90.0 xyz
      dof rx ry rz
   end
   begin
      id 20
      name RightHand_dum1
      direction -1.000000 0.000000 0.000000
      length 3.937000
      axis 0.0 0.0 90.0 xyz
   end
   begin
      id 21
      name RightHand_dum2
      direction 0.000000 0.000000 0.000000
      length 0.000000
      axis 0.0 0.0 90.0 xyz
   end
   begin
      id 22
      name RightHandThumb1
      direction 0.000000 0.000000 1.000000
      length 3.937000
      axis 0.0 0.0 90.0 xyz
      dof rx rz ry
   end
   begin
      id 23
      name LeftShoulder
      direction 1.000000 0.000000 0.000000
      length 7.708937
      axis 0.0 0.0 -90.0 xyz
      dof rx ry rz
   end
   begin
      id 24
      name LeftArm
      direction 1.000000 0.000000 0.000000
      length 11.521345
      axis 0.0 0.0 -90.0 xyz
      dof rx ry rz
   end
   begin
      id 25
      name LeftForeArm
      direction 1.000000 0.000000 0.000000
      length 10.175898
      axis 0.0 0.0 -90.0 xyz
      dof ry rz rx
   end
   begin
      id 26
      name LeftHand
      direction 1.000000 0.000000 0.000000
      length 0.000000
      axis 0.0 0.0 -90.0 xyz
      dof rx ry rz
   end
   begin
      id 27
      name LeftHand_dum1
      direction 1.000000 0.000000 0.000000
      length 3.937000
      axis 0.0 0.0 -90.0 xyz
   end
   begin
      id 28
      name LeftHand_dum2
      direction 0.000000 0.000000 0.000000
      length 0.000000
      axis 0.0 0.0 -90.0 xyz
   end
   begin
      id 29
      name LeftHandThumb1
      direction 0.000000 0.000000 1.000000
      length 3.937000
      axis 0.0 0.0 -90.0 xyz
      dof rx rz ry
   end
   begin
      id 30
      name Head
      direction 0.000000 1.000000 0.000000
      length 4.527550
      axis 0.0 0.0 0.0 xyz
      dof rx ry rz
   end
:hierarchy
   begin
      root RightUpLeg_dum LeftUpLeg_dum Spine_dum
      RightUpLeg_dum RightUpLeg
      LeftUpLeg_dum LeftUpLeg
      Spine_dum Spine
      RightUpLeg RightLeg
      RightLeg RightFoot
      RightFoot RightToeBase
      LeftUpLeg LeftLeg
      LeftLeg LeftFoot
      LeftFoot LeftToeBase
      Spine Spine_dum1 Spine_dum2 Spine_dum3
      Spine_dum1 RightShoulder
      Spine_dum2 LeftShoulder
      Spine_dum3 Head
      RightShoulder RightArm
      RightArm RightForeArm
      RightForeArm RightHand
      RightHand RightHand_dum1 RightHand_dum2
      RightHand_dum2 RightHandThumb1
      LeftShoulder LeftArm
      LeftArm LeftForeArm
      LeftForeArm LeftHand
      LeftHand LeftHand_dum1 LeftHand_dum2
      LeftHand_dum2 LeftHandThumb1
   end

# File created by Blade
# Date/Time:  Mon Sep 22 15:39:46 2014
# Frame Rate: 120.000 fps
#------------------------------------------------------
:FULLY-SPECIFIED
:DEGREES
558
root 2.209037 37.006323 2.785321 -1.347935 -0.799749 1.683227
RightUpLeg 10.460783 -7.965026 -3.826335
RightLeg -5.449065 -0.000000 0.000000
RightFoot -13.079007 -14.538394 16.374087
RightToeBase 15.750686 -0.000000 -0.000000
LeftUpLeg 8.218857 -0.468761 1.585274
LeftLeg -2.715758 -0.000000 0.000000
LeftFoot -10.272007 13.646172 -17.392430
LeftToeBase 9.848128 -0.000000 -0.000000
Spine -2.035392 22.760295 -4.191861
RightShoulder 15.316106 14.773117 -36.344997
RightArm 72.572592 6.021760 111.867014
RightForeArm 84.114109 -0.000000 122.954768
RightHand 20.618342 -0.000000 -0.472423
RightHandThumb1 -24.326973 -0.000000 -32.862282
LeftShoulder 0.417637 34.820368 3.312855
LeftArm 49.631536 23.843807 -57.581927
LeftForeArm 22.986867 -0.000000 16.363873
LeftHand -13.585552 -0.000000 -8.354551
LeftHandThumb1 -26.253704 0.000000 33.147579
Head -8.854017 -6.992330 -11.104929
559
root 2.216756 37.003849 2.797243 -1.419291 -0.839612 1.699022
RightUpLeg 10.537099 -7.857567 -3.854309
RightLeg -5.432545 -0.000000 0.000000
RightFoot -13.138676 -14.593129 16.388801
RightToeBase 15.797995 -0.000000 -0.000000
LeftUpLeg 8.340241 -0.416181 1.558435
LeftLeg -2.767508 -0.000000 0.000000
LeftFoot -10.278172 13.635921 -17.397560
LeftToeBase 9.867690 -0.000000 -0.000000
Spine -2.067755 22.673569 -4.156521
RightShoulder 15.456759 14.327449 -36.247916
RightArm 72.564942 5.893521 111.374857
RightForeArm 84.409763 -0.000000 122.263297
RightHand 20.663279 -0.000000 -0.922301
RightHandThumb1 -24.326973 -0.000000 -32.862282
LeftShoulder 0.358505 34.880905 3.311079
LeftArm 49.594305 23.836855 -57.678180
LeftForeArm 23.046211 -0.000000 16.372781
LeftHand -13.674668 0.000000 -8.279284
LeftHandThumb1 -26.253704 0.000000 33.147579
Head -8.698336 -7.098008 -10.878883
560
root 2.223020 37.001913 2.809776 -1.518692 -0.889035 1.714521
RightUpLeg 10.633580 -7.779326 -3.887189
RightLeg -5.403785 -0.000000 0.000000
RightFoot -13.183379 -14.624961 16.359075
RightToeBase 15.770572 -0.000000 -0.000000
LeftUpLeg 8.484291 -0.365406 1.533552
LeftLeg -2.805259 -0.000000 0.000000
LeftFoot -10.270768 13.636369 -17.398442
LeftToeBase 9.830370 -0.000000 -0.000000
Spine -2.037867 22.597009 -4.104877
RightShoulder 15.554282 14.024625 -36.129459
RightArm 72.401866 5.754749 110.772789
RightForeArm 84.647261 0.000000 121.504503
RightHand 20.411855 -0.000000 -1.537203
RightHandThumb1 -24.326973 -0.000000 -32.862282
LeftShoulder 0.288729 34.919105 3.315547
LeftArm 49.550803 23.828476 -57.786961
LeftForeArm 23.145437 -0.000000 16.403487
LeftHand -13.706228 0.000000 -8.284275
LeftHandThumb1 -26.253704 0.000000 33.147579
Head -8.609644 -7.265651 -10.640531
561
root 2.228071 36.999408 2.821764 -1.643380 -0.953853 1.720026
RightUpLeg 10.757997 -7.651529 -3.906199
RightLeg -5.388380 -0.000000 0.000000
RightFoot -13.213665 -14.687737 16.343851
RightToeBase 15.731310 -0.000000 -0.000000
LeftUpLeg 8.652258 -0.270816 1.521119
LeftLeg -2.835068 -0.000000 0.000000
LeftFoot -10.277617 13.623166 -17.335996
LeftToeBase 9.863359 -0.000000 -0.000000
Spine -1.958238 22.495387 -4.006773
RightShoulder 15.710119 13.705945 -36.079347
RightArm 72.309771 5.602409 110.156194
RightForeArm 85.118282 -0.000000 120.789348
RightHand 20.286168 -0.000000 -1.810427
RightHandThumb1 -24.326973 -0.000000 -32.862282
LeftShoulder 0.199877 34.986279 3.291703
LeftArm 49.526589 23.817190 -57.855995
LeftForeArm 23.160333 -0.000000 16.458356
LeftHand -13.695561 -0.000000 -8.230449
LeftHandThumb1 -26.253704 0.000000 33.147579
Head -8.595374 -7.282515 -10.446339
562
root 2.234010 36.998059 2.833863 -1.781887 -1.041972 1.738152
RightUpLeg 10.882767 -7.577810 -3.955173
RightLeg -5.341986 -0.000000 0.000000
RightFoot -13.249421 -14.635696 16.326857
RightToeBase 15.706077 -0.000000 -0.000000
LeftUpLeg 8.825099 -0.228721 1.489215
LeftLeg -2.843635 -0.000000 0.000000
LeftFoot -10.304907 13.661978 -17.348917
LeftToeBase 9.817133 -0.000000 -0.000000
Spine -1.843942 22.418366 -3.921590
RightShoulder 15.851357 13.370034 -36.052069
RightArm 72.262071 5.420371 109.557342
RightForeArm 85.640714 -0.000000 120.175039
RightHand 20.067537 -0.000000 -2.081986
RightHandThumb1 -24.326973 -0.000000 -32.862282
LeftShoulder 0.105480 35.053486 3.271632
LeftArm 49.513073 23.808076 -57.909083
LeftForeArm 23.191266 -0.000000 16.544538
LeftHand -13.732132 0.000000 -8.234354
LeftHandThumb1 -26.253704 0.000000 33.147579
Head -8.625086 -7.377085 -10.255086
563
root 2.239556 36.996660 2.844906 -1.931198 -1.141040 1.755418
RightUpLeg 11.014061 -7.463254 -3.996524
RightLeg -5.301077 -0.000000 0.000000
RightFoot -13.292683 -14.625807 16.317066
RightToeBase 15.715059 -0.000000 -0.000000
LeftUpLeg 8.998437 -0.210521 1.456697
LeftLeg -2.828117 -0.000000 0.000000
LeftFoot -10.357749 13.713356 -17.379257
LeftToeBase 9.855808 -0.000000 -0.000000
Spine -1.693934 22.352348 -3.822620
RightShoulder 16.006826 13.053720 -36.049498
RightArm 72.217448 5.227465 108.975218
RightForeArm 85.966399 -0.000000 119.634653
RightHand 19.871260 -0.000000 -2.028445
RightHandThumb1 -24.326973 -0.000000 -32.862282
LeftShoulder 0.019392 35.091434 3.256133
LeftArm 49.481590 23.806107 -57.969147
LeftForeArm 23.188789 -0.000000 16.636282
LeftHand -13.716539 -0.000000 -8.149771
LeftHandThumb1 -26.253704 0.000000 33.147579
Head -8.726300 -7.512651 -10.010187
564
root 2.242669 36.995335 2.855466 -2.096078 -1.245090 1.769251
RightUpLeg 11.159804 -7.347719 -4.030946
RightLeg -5.265522 -0.000000 0.000000
RightFoot -13.311959 -14.638493 16.280891
RightToeBase 15.681805 -0.000000 -0.000000
LeftUpLeg 9.187889 -0.188734 1.429772
LeftLeg -2.814853 -0.000000 0.000000
LeftFoot -10.399047 13.777335 -17.393290
LeftToeBase 9.825082 -0.000000 -0.000000
Spine -1.492172 22.326463 -3.721539
RightShoulder 16.117872 12.822823 -36.031733
RightArm 72.130512 5.018384 108.429807
RightForeArm 85.867223 -0.000000 119.191651
RightHand 19.765781 0.000000 -1.859166
RightHandThumb1 -24.326973 -0.000000 -32.862282
LeftShoulder -0.049135 35.130672 3.256952
LeftArm 49.485386 23.800399 -58.002471
LeftForeArm 23.184919 -0.000000 16.741117
LeftHand -13.723250 -0.000000 -8.206795
LeftHandThumb1 -26.253704 0.000000 33.147579
Head -8.888113 -7.585973 -9.769209
565
root 2.243287 36.995014 2.860750 -2.207475 -1.357071 1.768062
RightUpLeg 11.234402 -7.200213 -4.029974
RightLeg -5.227594 -0.000000 0.000000
RightFoot -13.341003 -14.689064 16.262956
RightToeBase 15.693812 -0.000000 -0.000000
LeftUpLeg 9.298956 -0.136788 1.422905
LeftLeg -2.767355 -0.000000 0.000000
LeftFoot -10.451084 13.840776 -17.391529
LeftToeBase 9.815277 -0.000000 -0.000000
Spine -1.338444 22.338475 -3.637784
RightShoulder 16.205198 12.629561 -35.991628
RightArm 72.049287 4.798860 107.977357
RightForeArm 85.489804 -0.000000 118.914518
RightHand 19.510255 -0.000000 -1.863971
RightHandThumb1 -24.326973 -0.000000 -32.862282
LeftShoulder -0.094604 35.189095 3.275608
LeftArm 49.518412 23.803442 -57.995708
LeftForeArm 23.153165 0.000000 16.857326
LeftHand -13.728823 -0.000000 -8.234815
LeftHandThumb1 -26.253704 0.000000 33.147579
Head -9.091610 -7.665741 -9.510980
566
root 2.244886 36.995372 2.867262 -2.335035 -1.467573 1.780879
RightUpLeg 11.331085 -7.131882 -4.069660
RightLeg -5.170595 -0.000000 0.000000
RightFoot -13.360198 -14.608122 16.258487
RightToeBase 15.540322 -0.000000 -0.000000
LeftUpLeg 9.433128 -0.122641 1.398937
LeftLeg -2.732635 -0.000000 0.000000
LeftFoot -10.494845 13.914948 -17.424940
LeftToeBase 9.775249 -0.000000 -0.000000
Spine -1.162947 22.363763 -3.579836
RightShoulder 16.285863 12.449627 -35.915574
RightArm 71.981566 4.571751 107.523594
RightForeArm 84.925061 0.000000 118.713239
RightHand 19.436185 -0.000000 -1.646757
RightHandThumb1 -24.326973 -0.000000 -32.862282
LeftShoulder -0.123398 35.244386 3.318274
LeftArm 49.564540 23.806820 -57.986946
LeftForeArm 23.087705 -0.000000 16.961090
LeftHand -13.738002 0.000000 -8.234903
LeftHandThumb1 -26.253704 0.000000 33.147579
Head -9.285740 -7.833357 -9.223771
